<mxfile host="app.diagrams.net" modified="2021-09-04T11:18:57.074Z" agent="5.0 (Windows NT 10.0; Win64; x64) AppleWebKit/537.36 (KHTML, like Gecko) Chrome/93.0.4577.63 Safari/537.36 Edg/93.0.961.38" etag="61DRNjKPkYp8CsV6wweG" version="15.0.6" type="github">
  <diagram id="R2lEEEUBdFMjLlhIrx00" name="Page-1">
    <mxGraphModel dx="1499" dy="669" grid="0" gridSize="10" guides="1" tooltips="1" connect="1" arrows="1" fold="1" page="0" pageScale="1" pageWidth="850" pageHeight="1100" background="#FFFFFF" math="0" shadow="1" extFonts="Permanent Marker^https://fonts.googleapis.com/css?family=Permanent+Marker">
      <root>
        <mxCell id="0" />
        <mxCell id="1" parent="0" />
        <mxCell id="33nhRfvFIWK5ysiOkJzc-4" value="Birthday Party" style="rounded=0;whiteSpace=wrap;html=1;" vertex="1" parent="1">
          <mxGeometry x="160" y="280" width="100" height="30" as="geometry" />
        </mxCell>
        <mxCell id="33nhRfvFIWK5ysiOkJzc-5" value="Business Party" style="rounded=0;whiteSpace=wrap;html=1;" vertex="1" parent="1">
          <mxGeometry x="360" y="260" width="100" height="30" as="geometry" />
        </mxCell>
        <mxCell id="33nhRfvFIWK5ysiOkJzc-6" value="Dinner Party" style="rounded=0;whiteSpace=wrap;html=1;" vertex="1" parent="1">
          <mxGeometry x="260" y="220" width="100" height="30" as="geometry" />
        </mxCell>
        <mxCell id="33nhRfvFIWK5ysiOkJzc-7" value="Cocktail Party" style="rounded=0;whiteSpace=wrap;html=1;" vertex="1" parent="1">
          <mxGeometry x="400" y="310" width="100" height="30" as="geometry" />
        </mxCell>
        <mxCell id="33nhRfvFIWK5ysiOkJzc-8" value="d" style="ellipse;whiteSpace=wrap;html=1;aspect=fixed;" vertex="1" parent="1">
          <mxGeometry x="290" y="360" width="40" height="40" as="geometry" />
        </mxCell>
        <mxCell id="33nhRfvFIWK5ysiOkJzc-10" value="" style="endArrow=none;html=1;exitX=0.5;exitY=1;exitDx=0;exitDy=0;entryX=0;entryY=0.5;entryDx=0;entryDy=0;" edge="1" parent="1" source="33nhRfvFIWK5ysiOkJzc-4" target="33nhRfvFIWK5ysiOkJzc-8">
          <mxGeometry width="50" height="50" relative="1" as="geometry">
            <mxPoint x="290" y="490" as="sourcePoint" />
            <mxPoint x="340" y="440" as="targetPoint" />
          </mxGeometry>
        </mxCell>
        <mxCell id="33nhRfvFIWK5ysiOkJzc-11" value="" style="endArrow=none;html=1;entryX=0.5;entryY=0;entryDx=0;entryDy=0;" edge="1" parent="1" source="33nhRfvFIWK5ysiOkJzc-6" target="33nhRfvFIWK5ysiOkJzc-8">
          <mxGeometry width="50" height="50" relative="1" as="geometry">
            <mxPoint x="290" y="490" as="sourcePoint" />
            <mxPoint x="340" y="440" as="targetPoint" />
          </mxGeometry>
        </mxCell>
        <mxCell id="33nhRfvFIWK5ysiOkJzc-12" value="" style="endArrow=none;html=1;entryX=0;entryY=0.75;entryDx=0;entryDy=0;exitX=1;exitY=0;exitDx=0;exitDy=0;" edge="1" parent="1" source="33nhRfvFIWK5ysiOkJzc-8" target="33nhRfvFIWK5ysiOkJzc-5">
          <mxGeometry width="50" height="50" relative="1" as="geometry">
            <mxPoint x="290" y="490" as="sourcePoint" />
            <mxPoint x="340" y="440" as="targetPoint" />
          </mxGeometry>
        </mxCell>
        <mxCell id="33nhRfvFIWK5ysiOkJzc-13" value="" style="endArrow=none;html=1;entryX=0;entryY=0.5;entryDx=0;entryDy=0;exitX=1;exitY=0.5;exitDx=0;exitDy=0;" edge="1" parent="1" source="33nhRfvFIWK5ysiOkJzc-8" target="33nhRfvFIWK5ysiOkJzc-7">
          <mxGeometry width="50" height="50" relative="1" as="geometry">
            <mxPoint x="290" y="490" as="sourcePoint" />
            <mxPoint x="340" y="440" as="targetPoint" />
          </mxGeometry>
        </mxCell>
        <mxCell id="33nhRfvFIWK5ysiOkJzc-14" value="Party" style="rounded=0;whiteSpace=wrap;html=1;" vertex="1" parent="1">
          <mxGeometry x="275" y="490" width="70" height="30" as="geometry" />
        </mxCell>
        <mxCell id="33nhRfvFIWK5ysiOkJzc-16" value="" style="endArrow=none;html=1;entryX=0.5;entryY=1;entryDx=0;entryDy=0;exitX=0.5;exitY=0;exitDx=0;exitDy=0;" edge="1" parent="1" source="33nhRfvFIWK5ysiOkJzc-14" target="33nhRfvFIWK5ysiOkJzc-8">
          <mxGeometry width="50" height="50" relative="1" as="geometry">
            <mxPoint x="311" y="490" as="sourcePoint" />
            <mxPoint x="340" y="510" as="targetPoint" />
            <Array as="points">
              <mxPoint x="310" y="430" />
            </Array>
          </mxGeometry>
        </mxCell>
        <mxCell id="33nhRfvFIWK5ysiOkJzc-17" value="" style="endArrow=none;html=1;entryX=0.342;entryY=0.95;entryDx=0;entryDy=0;entryPerimeter=0;" edge="1" parent="1" target="33nhRfvFIWK5ysiOkJzc-8">
          <mxGeometry width="50" height="50" relative="1" as="geometry">
            <mxPoint x="304" y="490" as="sourcePoint" />
            <mxPoint x="340" y="510" as="targetPoint" />
          </mxGeometry>
        </mxCell>
        <mxCell id="33nhRfvFIWK5ysiOkJzc-18" value="&lt;u&gt;PartyID&lt;/u&gt;" style="ellipse;whiteSpace=wrap;html=1;" vertex="1" parent="1">
          <mxGeometry x="150" y="450" width="60" height="40" as="geometry" />
        </mxCell>
        <mxCell id="33nhRfvFIWK5ysiOkJzc-19" value="name" style="ellipse;whiteSpace=wrap;html=1;" vertex="1" parent="1">
          <mxGeometry x="110" y="500" width="60" height="40" as="geometry" />
        </mxCell>
        <mxCell id="33nhRfvFIWK5ysiOkJzc-20" value="Date &amp;amp; time" style="ellipse;whiteSpace=wrap;html=1;" vertex="1" parent="1">
          <mxGeometry x="140" y="560" width="60" height="30" as="geometry" />
        </mxCell>
        <mxCell id="33nhRfvFIWK5ysiOkJzc-21" value="" style="endArrow=none;html=1;entryX=0;entryY=1;entryDx=0;entryDy=0;" edge="1" parent="1" target="33nhRfvFIWK5ysiOkJzc-14">
          <mxGeometry width="50" height="50" relative="1" as="geometry">
            <mxPoint x="190" y="570" as="sourcePoint" />
            <mxPoint x="340" y="510" as="targetPoint" />
          </mxGeometry>
        </mxCell>
        <mxCell id="33nhRfvFIWK5ysiOkJzc-22" value="" style="endArrow=none;html=1;exitX=1;exitY=0.5;exitDx=0;exitDy=0;entryX=0;entryY=0.75;entryDx=0;entryDy=0;" edge="1" parent="1" source="33nhRfvFIWK5ysiOkJzc-19" target="33nhRfvFIWK5ysiOkJzc-14">
          <mxGeometry width="50" height="50" relative="1" as="geometry">
            <mxPoint x="290" y="560" as="sourcePoint" />
            <mxPoint x="340" y="510" as="targetPoint" />
          </mxGeometry>
        </mxCell>
        <mxCell id="33nhRfvFIWK5ysiOkJzc-23" value="" style="endArrow=none;html=1;exitX=1;exitY=1;exitDx=0;exitDy=0;entryX=0;entryY=0.25;entryDx=0;entryDy=0;" edge="1" parent="1" source="33nhRfvFIWK5ysiOkJzc-18" target="33nhRfvFIWK5ysiOkJzc-14">
          <mxGeometry width="50" height="50" relative="1" as="geometry">
            <mxPoint x="290" y="560" as="sourcePoint" />
            <mxPoint x="280" y="500" as="targetPoint" />
          </mxGeometry>
        </mxCell>
        <mxCell id="33nhRfvFIWK5ysiOkJzc-24" value="type" style="ellipse;whiteSpace=wrap;html=1;" vertex="1" parent="1">
          <mxGeometry x="395" y="440" width="60" height="40" as="geometry" />
        </mxCell>
        <mxCell id="33nhRfvFIWK5ysiOkJzc-25" value="no. of Guests" style="ellipse;whiteSpace=wrap;html=1;" vertex="1" parent="1">
          <mxGeometry x="430" y="480" width="80" height="40" as="geometry" />
        </mxCell>
        <mxCell id="33nhRfvFIWK5ysiOkJzc-26" value="" style="endArrow=none;html=1;entryX=0;entryY=0.5;entryDx=0;entryDy=0;" edge="1" parent="1" target="33nhRfvFIWK5ysiOkJzc-24">
          <mxGeometry width="50" height="50" relative="1" as="geometry">
            <mxPoint x="340" y="490" as="sourcePoint" />
            <mxPoint x="340" y="510" as="targetPoint" />
          </mxGeometry>
        </mxCell>
        <mxCell id="33nhRfvFIWK5ysiOkJzc-27" value="" style="endArrow=none;html=1;entryX=0;entryY=0.5;entryDx=0;entryDy=0;exitX=1;exitY=0.5;exitDx=0;exitDy=0;" edge="1" parent="1" source="33nhRfvFIWK5ysiOkJzc-14" target="33nhRfvFIWK5ysiOkJzc-25">
          <mxGeometry width="50" height="50" relative="1" as="geometry">
            <mxPoint x="290" y="560" as="sourcePoint" />
            <mxPoint x="340" y="510" as="targetPoint" />
          </mxGeometry>
        </mxCell>
        <mxCell id="33nhRfvFIWK5ysiOkJzc-28" value="Organised by" style="rhombus;whiteSpace=wrap;html=1;" vertex="1" parent="1">
          <mxGeometry x="265" y="590" width="80" height="70" as="geometry" />
        </mxCell>
        <mxCell id="33nhRfvFIWK5ysiOkJzc-29" value="" style="endArrow=none;html=1;entryX=0.41;entryY=0.978;entryDx=0;entryDy=0;exitX=0.5;exitY=0;exitDx=0;exitDy=0;entryPerimeter=0;" edge="1" parent="1" source="33nhRfvFIWK5ysiOkJzc-28" target="33nhRfvFIWK5ysiOkJzc-14">
          <mxGeometry width="50" height="50" relative="1" as="geometry">
            <mxPoint x="290" y="600" as="sourcePoint" />
            <mxPoint x="340" y="550" as="targetPoint" />
          </mxGeometry>
        </mxCell>
        <mxCell id="33nhRfvFIWK5ysiOkJzc-30" value="Company" style="ellipse;whiteSpace=wrap;html=1;" vertex="1" parent="1">
          <mxGeometry x="150" y="740" width="60" height="40" as="geometry" />
        </mxCell>
        <mxCell id="33nhRfvFIWK5ysiOkJzc-31" value="name" style="ellipse;whiteSpace=wrap;html=1;" vertex="1" parent="1">
          <mxGeometry x="370" y="790" width="60" height="40" as="geometry" />
        </mxCell>
        <mxCell id="33nhRfvFIWK5ysiOkJzc-32" value="Phone no." style="ellipse;whiteSpace=wrap;html=1;" vertex="1" parent="1">
          <mxGeometry x="195" y="790" width="80" height="40" as="geometry" />
        </mxCell>
        <mxCell id="33nhRfvFIWK5ysiOkJzc-33" value="email" style="ellipse;whiteSpace=wrap;html=1;" vertex="1" parent="1">
          <mxGeometry x="275" y="820" width="80" height="40" as="geometry" />
        </mxCell>
        <mxCell id="33nhRfvFIWK5ysiOkJzc-34" value="&lt;u&gt;organiserID&lt;/u&gt;" style="ellipse;whiteSpace=wrap;html=1;" vertex="1" parent="1">
          <mxGeometry x="370" y="730" width="90" height="50" as="geometry" />
        </mxCell>
        <mxCell id="33nhRfvFIWK5ysiOkJzc-35" value="Organisers" style="rounded=0;whiteSpace=wrap;html=1;" vertex="1" parent="1">
          <mxGeometry x="270" y="720" width="70" height="20" as="geometry" />
        </mxCell>
        <mxCell id="33nhRfvFIWK5ysiOkJzc-48" value="M" style="text;html=1;align=center;verticalAlign=middle;resizable=0;points=[];autosize=1;strokeColor=none;fillColor=none;" vertex="1" parent="1">
          <mxGeometry x="295" y="520" width="30" height="20" as="geometry" />
        </mxCell>
        <mxCell id="33nhRfvFIWK5ysiOkJzc-50" value="" style="endArrow=none;html=1;rounded=0;exitX=0.5;exitY=1;exitDx=0;exitDy=0;entryX=0.5;entryY=0;entryDx=0;entryDy=0;" edge="1" parent="1" source="33nhRfvFIWK5ysiOkJzc-28" target="33nhRfvFIWK5ysiOkJzc-35">
          <mxGeometry relative="1" as="geometry">
            <mxPoint x="310" y="610" as="sourcePoint" />
            <mxPoint x="470" y="610" as="targetPoint" />
          </mxGeometry>
        </mxCell>
        <mxCell id="33nhRfvFIWK5ysiOkJzc-51" value="1" style="text;html=1;align=center;verticalAlign=middle;resizable=0;points=[];autosize=1;strokeColor=none;fillColor=none;" vertex="1" parent="1">
          <mxGeometry x="300" y="700" width="20" height="20" as="geometry" />
        </mxCell>
        <mxCell id="33nhRfvFIWK5ysiOkJzc-52" value="" style="endArrow=none;html=1;rounded=0;exitX=1;exitY=0;exitDx=0;exitDy=0;entryX=0;entryY=0.5;entryDx=0;entryDy=0;" edge="1" parent="1" source="33nhRfvFIWK5ysiOkJzc-30" target="33nhRfvFIWK5ysiOkJzc-35">
          <mxGeometry relative="1" as="geometry">
            <mxPoint x="310" y="650" as="sourcePoint" />
            <mxPoint x="470" y="650" as="targetPoint" />
          </mxGeometry>
        </mxCell>
        <mxCell id="33nhRfvFIWK5ysiOkJzc-53" value="" style="endArrow=none;html=1;rounded=0;exitX=0.733;exitY=0.017;exitDx=0;exitDy=0;exitPerimeter=0;entryX=0.25;entryY=1;entryDx=0;entryDy=0;" edge="1" parent="1" source="33nhRfvFIWK5ysiOkJzc-32" target="33nhRfvFIWK5ysiOkJzc-35">
          <mxGeometry relative="1" as="geometry">
            <mxPoint x="310" y="650" as="sourcePoint" />
            <mxPoint x="470" y="650" as="targetPoint" />
          </mxGeometry>
        </mxCell>
        <mxCell id="33nhRfvFIWK5ysiOkJzc-54" value="" style="endArrow=none;html=1;rounded=0;exitX=0.5;exitY=0;exitDx=0;exitDy=0;entryX=0.5;entryY=1;entryDx=0;entryDy=0;" edge="1" parent="1" source="33nhRfvFIWK5ysiOkJzc-33" target="33nhRfvFIWK5ysiOkJzc-35">
          <mxGeometry relative="1" as="geometry">
            <mxPoint x="310" y="650" as="sourcePoint" />
            <mxPoint x="470" y="650" as="targetPoint" />
          </mxGeometry>
        </mxCell>
        <mxCell id="33nhRfvFIWK5ysiOkJzc-55" value="" style="endArrow=none;html=1;rounded=0;exitX=0;exitY=0;exitDx=0;exitDy=0;entryX=0.75;entryY=1;entryDx=0;entryDy=0;" edge="1" parent="1" source="33nhRfvFIWK5ysiOkJzc-31" target="33nhRfvFIWK5ysiOkJzc-35">
          <mxGeometry relative="1" as="geometry">
            <mxPoint x="310" y="650" as="sourcePoint" />
            <mxPoint x="470" y="650" as="targetPoint" />
          </mxGeometry>
        </mxCell>
        <mxCell id="33nhRfvFIWK5ysiOkJzc-56" value="" style="endArrow=none;html=1;rounded=0;exitX=1;exitY=0.5;exitDx=0;exitDy=0;entryX=0;entryY=0;entryDx=0;entryDy=0;" edge="1" parent="1" source="33nhRfvFIWK5ysiOkJzc-35" target="33nhRfvFIWK5ysiOkJzc-34">
          <mxGeometry relative="1" as="geometry">
            <mxPoint x="310" y="650" as="sourcePoint" />
            <mxPoint x="470" y="650" as="targetPoint" />
          </mxGeometry>
        </mxCell>
        <mxCell id="33nhRfvFIWK5ysiOkJzc-57" value="" style="endArrow=none;html=1;rounded=0;exitX=0.929;exitY=1;exitDx=0;exitDy=0;exitPerimeter=0;entryX=0;entryY=0.5;entryDx=0;entryDy=0;" edge="1" parent="1" source="33nhRfvFIWK5ysiOkJzc-14" target="33nhRfvFIWK5ysiOkJzc-58">
          <mxGeometry relative="1" as="geometry">
            <mxPoint x="280" y="630" as="sourcePoint" />
            <mxPoint x="440" y="630" as="targetPoint" />
            <Array as="points">
              <mxPoint x="340" y="590" />
            </Array>
          </mxGeometry>
        </mxCell>
        <mxCell id="33nhRfvFIWK5ysiOkJzc-58" value="attended by" style="shape=rhombus;perimeter=rhombusPerimeter;whiteSpace=wrap;html=1;align=center;" vertex="1" parent="1">
          <mxGeometry x="480" y="560" width="120" height="60" as="geometry" />
        </mxCell>
        <mxCell id="33nhRfvFIWK5ysiOkJzc-59" value="M" style="text;html=1;align=center;verticalAlign=middle;resizable=0;points=[];autosize=1;strokeColor=none;fillColor=none;" vertex="1" parent="1">
          <mxGeometry x="335" y="520" width="30" height="20" as="geometry" />
        </mxCell>
        <mxCell id="33nhRfvFIWK5ysiOkJzc-60" value="Attendees" style="whiteSpace=wrap;html=1;align=center;" vertex="1" parent="1">
          <mxGeometry x="710" y="570" width="100" height="40" as="geometry" />
        </mxCell>
        <mxCell id="33nhRfvFIWK5ysiOkJzc-61" value="" style="endArrow=none;html=1;rounded=0;exitX=1;exitY=0.5;exitDx=0;exitDy=0;entryX=0;entryY=0.5;entryDx=0;entryDy=0;" edge="1" parent="1" source="33nhRfvFIWK5ysiOkJzc-58" target="33nhRfvFIWK5ysiOkJzc-60">
          <mxGeometry relative="1" as="geometry">
            <mxPoint x="620" y="520" as="sourcePoint" />
            <mxPoint x="780" y="520" as="targetPoint" />
          </mxGeometry>
        </mxCell>
        <mxCell id="33nhRfvFIWK5ysiOkJzc-62" value="M" style="text;html=1;align=center;verticalAlign=middle;resizable=0;points=[];autosize=1;strokeColor=none;fillColor=none;" vertex="1" parent="1">
          <mxGeometry x="685" y="570" width="30" height="20" as="geometry" />
        </mxCell>
        <mxCell id="33nhRfvFIWK5ysiOkJzc-63" value="&lt;u&gt;Attendee ID&lt;/u&gt;" style="ellipse;whiteSpace=wrap;html=1;align=center;" vertex="1" parent="1">
          <mxGeometry x="650" y="470" width="100" height="40" as="geometry" />
        </mxCell>
        <mxCell id="33nhRfvFIWK5ysiOkJzc-64" value="name" style="ellipse;whiteSpace=wrap;html=1;align=center;" vertex="1" parent="1">
          <mxGeometry x="660" y="690" width="100" height="40" as="geometry" />
        </mxCell>
        <mxCell id="33nhRfvFIWK5ysiOkJzc-65" value="phone" style="ellipse;whiteSpace=wrap;html=1;align=center;" vertex="1" parent="1">
          <mxGeometry x="800" y="470" width="100" height="40" as="geometry" />
        </mxCell>
        <mxCell id="33nhRfvFIWK5ysiOkJzc-66" value="email" style="ellipse;whiteSpace=wrap;html=1;align=center;" vertex="1" parent="1">
          <mxGeometry x="900" y="650" width="100" height="40" as="geometry" />
        </mxCell>
        <mxCell id="33nhRfvFIWK5ysiOkJzc-67" value="age" style="ellipse;whiteSpace=wrap;html=1;align=center;" vertex="1" parent="1">
          <mxGeometry x="790" y="690" width="100" height="40" as="geometry" />
        </mxCell>
        <mxCell id="33nhRfvFIWK5ysiOkJzc-68" value="address" style="ellipse;whiteSpace=wrap;html=1;align=center;" vertex="1" parent="1">
          <mxGeometry x="910" y="555" width="100" height="40" as="geometry" />
        </mxCell>
        <mxCell id="33nhRfvFIWK5ysiOkJzc-70" value="" style="endArrow=none;html=1;rounded=0;exitX=0.5;exitY=1;exitDx=0;exitDy=0;entryX=0.25;entryY=0;entryDx=0;entryDy=0;" edge="1" parent="1" source="33nhRfvFIWK5ysiOkJzc-63" target="33nhRfvFIWK5ysiOkJzc-60">
          <mxGeometry relative="1" as="geometry">
            <mxPoint x="770" y="540" as="sourcePoint" />
            <mxPoint x="930" y="540" as="targetPoint" />
          </mxGeometry>
        </mxCell>
        <mxCell id="33nhRfvFIWK5ysiOkJzc-71" value="" style="endArrow=none;html=1;rounded=0;entryX=0.3;entryY=1;entryDx=0;entryDy=0;entryPerimeter=0;exitX=0.5;exitY=0;exitDx=0;exitDy=0;" edge="1" parent="1" source="33nhRfvFIWK5ysiOkJzc-60" target="33nhRfvFIWK5ysiOkJzc-65">
          <mxGeometry relative="1" as="geometry">
            <mxPoint x="770" y="540" as="sourcePoint" />
            <mxPoint x="930" y="540" as="targetPoint" />
          </mxGeometry>
        </mxCell>
        <mxCell id="33nhRfvFIWK5ysiOkJzc-72" value="" style="endArrow=none;html=1;rounded=0;exitX=1;exitY=0.25;exitDx=0;exitDy=0;entryX=0;entryY=0.5;entryDx=0;entryDy=0;" edge="1" parent="1" source="33nhRfvFIWK5ysiOkJzc-60" target="33nhRfvFIWK5ysiOkJzc-68">
          <mxGeometry relative="1" as="geometry">
            <mxPoint x="770" y="540" as="sourcePoint" />
            <mxPoint x="930" y="540" as="targetPoint" />
          </mxGeometry>
        </mxCell>
        <mxCell id="33nhRfvFIWK5ysiOkJzc-73" value="" style="endArrow=none;html=1;rounded=0;exitX=0.25;exitY=1;exitDx=0;exitDy=0;entryX=0.5;entryY=0;entryDx=0;entryDy=0;" edge="1" parent="1" source="33nhRfvFIWK5ysiOkJzc-60" target="33nhRfvFIWK5ysiOkJzc-64">
          <mxGeometry relative="1" as="geometry">
            <mxPoint x="770" y="540" as="sourcePoint" />
            <mxPoint x="930" y="540" as="targetPoint" />
          </mxGeometry>
        </mxCell>
        <mxCell id="33nhRfvFIWK5ysiOkJzc-74" value="" style="endArrow=none;html=1;rounded=0;exitX=0.5;exitY=1;exitDx=0;exitDy=0;entryX=0;entryY=0;entryDx=0;entryDy=0;" edge="1" parent="1" source="33nhRfvFIWK5ysiOkJzc-60" target="33nhRfvFIWK5ysiOkJzc-67">
          <mxGeometry relative="1" as="geometry">
            <mxPoint x="770" y="540" as="sourcePoint" />
            <mxPoint x="930" y="540" as="targetPoint" />
          </mxGeometry>
        </mxCell>
        <mxCell id="33nhRfvFIWK5ysiOkJzc-75" value="" style="endArrow=none;html=1;rounded=0;exitX=1;exitY=0.75;exitDx=0;exitDy=0;entryX=0;entryY=0;entryDx=0;entryDy=0;" edge="1" parent="1" source="33nhRfvFIWK5ysiOkJzc-60" target="33nhRfvFIWK5ysiOkJzc-66">
          <mxGeometry relative="1" as="geometry">
            <mxPoint x="770" y="540" as="sourcePoint" />
            <mxPoint x="930" y="540" as="targetPoint" />
          </mxGeometry>
        </mxCell>
      </root>
    </mxGraphModel>
  </diagram>
</mxfile>
